<svg width="27" height="30" viewBox="0 0 27 30" fill="none" xmlns="http://www.w3.org/2000/svg">
<path d="M13.5 16C12.2213 16 10.9949 15.6488 10.0907 15.0237C9.18654 14.3986 8.67857 13.5507 8.67857 12.6667C8.67857 11.7826 9.18654 10.9348 10.0907 10.3096C10.9949 9.68452 12.2213 9.33333 13.5 9.33333C14.7787 9.33333 16.0051 9.68452 16.9093 10.3096C17.8135 10.9348 18.3214 11.7826 18.3214 12.6667C18.3214 13.1044 18.1967 13.5379 17.9544 13.9423C17.7121 14.3467 17.357 14.7142 16.9093 15.0237C16.4616 15.3332 15.93 15.5787 15.3451 15.7463C14.7601 15.9138 14.1332 16 13.5 16ZM13.5 3.33333C9.91958 3.33333 6.4858 4.31666 3.95406 6.067C1.42232 7.81734 0 10.1913 0 12.6667C0 19.6667 13.5 30 13.5 30C13.5 30 27 19.6667 27 12.6667C27 10.1913 25.5777 7.81734 23.0459 6.067C20.5142 4.31666 17.0804 3.33333 13.5 3.33333Z" fill="#076BEF"/>
<path d="M13.5 16C12.2213 16 10.9949 15.6488 10.0907 15.0237C9.18654 14.3986 8.67857 13.5507 8.67857 12.6667C8.67857 11.7826 9.18654 10.9348 10.0907 10.3096C10.9949 9.68452 12.2213 9.33333 13.5 9.33333C14.7787 9.33333 16.0051 9.68452 16.9093 10.3096C17.8135 10.9348 18.3214 11.7826 18.3214 12.6667C18.3214 13.1044 18.1967 13.5379 17.9544 13.9423C17.7121 14.3467 17.357 14.7142 16.9093 15.0237C16.4616 15.3332 15.93 15.5787 15.3451 15.7463C14.7601 15.9138 14.1332 16 13.5 16ZM13.5 3.33333C9.91958 3.33333 6.4858 4.31666 3.95406 6.067C1.42232 7.81734 0 10.1913 0 12.6667C0 19.6667 13.5 30 13.5 30C13.5 30 27 19.6667 27 12.6667C27 10.1913 25.5777 7.81734 23.0459 6.067C20.5142 4.31666 17.0804 3.33333 13.5 3.33333Z" fill="black" fill-opacity="0.6"/>
</svg>
