<svg width="32" height="32" viewBox="0 0 32 32" fill="none" xmlns="http://www.w3.org/2000/svg">
<g clip-path="url(#clip0_413_10)">
<path d="M16.0266 5.40875V16.0001V5.40875ZM22.2933 19.6068L16.0613 16.0101L22.2933 19.6068ZM1.66663 16.0001C1.66396 23.9134 8.07929 30.3307 15.9953 30.3334C23.9113 30.3361 30.3306 23.9228 30.3333 16.0094V16.0001C30.336 8.08675 23.9206 1.66942 16.0046 1.66675C8.08863 1.66408 1.66929 8.07742 1.66663 15.9907V16.0001Z" fill="#2A364F"/>
<path d="M16.0266 5.40875V16.0001M22.2933 19.6067L16.0613 16.0101M1.66663 16.0001C1.66396 23.9134 8.07929 30.3307 15.9953 30.3334C23.9113 30.3361 30.3306 23.9227 30.3333 16.0094V16.0001C30.336 8.08675 23.9206 1.66942 16.0046 1.66675C8.08863 1.66408 1.66929 8.07742 1.66663 15.9907V16.0001Z" stroke="white" stroke-width="2" stroke-linecap="round" stroke-linejoin="round"/>
</g>
<defs>
<clipPath id="clip0_413_10">
<rect width="32" height="32" fill="white"/>
</clipPath>
</defs>
</svg>
